<?xml version="1.0" encoding="utf-8"?>
<!-- Generator: Adobe Illustrator 23.0.0, SVG Export Plug-In . SVG Version: 6.00 Build 0)  -->
<svg version="1.1" id="Layer_1" xmlns="http://www.w3.org/2000/svg" xmlns:xlink="http://www.w3.org/1999/xlink" x="0px" y="0px"
	 viewBox="0 0 39.2 40" style="enable-background:new 0 0 39.2 40;" xml:space="preserve">
<style type="text/css">
	.st0{fill:none;}
</style>
<g>
	<polygon class="st0" points="29.1,18.3 35.4,7 9.2,7 14.7,18.3 	"/>
	<path d="M11.8,32.8c-1,0-1.8,0.3-2.5,1s-1,1.5-1,2.5s0.3,1.9,1,2.6c0.7,0.7,1.5,1,2.5,1s1.9-0.4,2.6-1c0.7-0.7,1-1.6,1-2.6
		s-0.4-1.8-1-2.5C13.7,33.1,12.8,32.8,11.8,32.8z"/>
	<path d="M31.8,32.8c-1,0-1.8,0.3-2.5,1s-1,1.5-1,2.5s0.3,1.9,1,2.6c0.7,0.7,1.5,1,2.5,1s1.9-0.4,2.6-1c0.7-0.7,1-1.6,1-2.6
		s-0.4-1.8-1-2.5C33.7,33.1,32.8,32.8,31.8,32.8z"/>
	<path d="M28.8,21.3c0.7,0,1.3-0.2,1.9-0.6c0.6-0.4,1.1-0.9,1.4-1.5l6.8-12.2c0.4-0.7,0.4-1.4,0-2.1c-0.4-0.7-1-1-1.8-1H7.7L5.9,0H0
		v3h3.9l7.6,16.1L8.3,25c-0.6,1.2-0.6,2.2,0,3.2c0.6,0.9,1.6,1.4,3,1.4h24.1v-3H10.9l2.8-5.2H28.8z M9.2,7h26.2l-6.3,11.4H14.7
		L9.2,7z"/>
</g>
</svg>
