<?xml version="1.0" encoding="utf-8"?>
<!-- Generator: Adobe Illustrator 23.0.0, SVG Export Plug-In . SVG Version: 6.00 Build 0)  -->
<svg version="1.1" id="Layer_1" xmlns="http://www.w3.org/2000/svg" xmlns:xlink="http://www.w3.org/1999/xlink" x="0px" y="0px"
	 viewBox="0 0 13.3 13.3" style="enable-background:new 0 0 13.3 13.3;" xml:space="preserve">
<style type="text/css">
	.st0{fill:none;}
</style>
<g>
	<path class="st0" d="M4.7,10.7c-0.2,0-0.3,0.1-0.5,0.2C4.1,11,4,11.2,4,11.3c0,0.2,0.1,0.3,0.2,0.5C4.3,11.9,4.5,12,4.7,12
		s0.3-0.1,0.5-0.2c0.1-0.1,0.2-0.3,0.2-0.5c0-0.2-0.1-0.3-0.2-0.5C5,10.7,4.8,10.7,4.7,10.7z"/>
	<path class="st0" d="M8.7,6C8.5,6,8.3,6.1,8.2,6.2C8.1,6.3,8,6.5,8,6.7S8.1,7,8.2,7.1c0.1,0.1,0.3,0.2,0.5,0.2S9,7.3,9.1,7.1
		C9.3,7,9.3,6.8,9.3,6.7S9.3,6.3,9.1,6.2C9,6.1,8.8,6,8.7,6z"/>
	<path class="st0" d="M4.7,1.3c-0.2,0-0.3,0.1-0.5,0.2C4.1,1.7,4,1.8,4,2s0.1,0.3,0.2,0.5c0.1,0.1,0.3,0.2,0.5,0.2S5,2.6,5.1,2.5
		C5.3,2.3,5.3,2.2,5.3,2S5.3,1.7,5.1,1.5C5,1.4,4.8,1.3,4.7,1.3z"/>
	<path d="M6.6,1.3c-0.1-0.4-0.4-0.7-0.7-1C5.5,0.1,5.1,0,4.7,0S3.8,0.1,3.5,0.4c-0.3,0.2-0.6,0.6-0.7,1H0v1.3h2.8
		c0.1,0.4,0.4,0.7,0.7,1C3.8,3.9,4.3,4,4.7,4s0.8-0.1,1.2-0.4s0.6-0.6,0.7-1h6.8V1.3H6.6z M5.1,2.5C5,2.6,4.8,2.7,4.7,2.7
		S4.3,2.6,4.2,2.5C4.1,2.3,4,2.2,4,2s0.1-0.3,0.2-0.5c0.1-0.1,0.3-0.2,0.5-0.2S5,1.4,5.1,1.5C5.3,1.7,5.3,1.8,5.3,2S5.3,2.3,5.1,2.5
		z"/>
	<path d="M5.8,9.7C5.5,9.5,5.1,9.3,4.7,9.3S3.8,9.5,3.5,9.7c-0.3,0.2-0.6,0.6-0.7,1H0V12h2.8c0.1,0.4,0.4,0.7,0.7,1
		c0.3,0.2,0.7,0.4,1.2,0.4s0.8-0.1,1.2-0.4c0.3-0.2,0.6-0.6,0.7-1h6.8v-1.3H6.6C6.4,10.3,6.2,9.9,5.8,9.7z M5.1,11.8
		C5,11.9,4.8,12,4.7,12s-0.3-0.1-0.5-0.2C4.1,11.7,4,11.5,4,11.3c0-0.2,0.1-0.3,0.2-0.5c0.1-0.1,0.3-0.2,0.5-0.2s0.3,0.1,0.5,0.2
		c0.1,0.1,0.2,0.3,0.2,0.5C5.3,11.5,5.3,11.7,5.1,11.8z"/>
	<path d="M9.8,5C9.5,4.8,9.1,4.7,8.7,4.7C8.3,4.7,7.8,4.8,7.5,5C7.2,5.3,6.9,5.6,6.8,6H0v1.3h6.8c0.1,0.4,0.4,0.7,0.7,1
		c0.3,0.2,0.7,0.4,1.2,0.4c0.4,0,0.8-0.1,1.2-0.4c0.3-0.2,0.6-0.6,0.7-1h2.8V6h-2.8C10.4,5.6,10.2,5.3,9.8,5z M9.1,7.1
		C9,7.3,8.8,7.3,8.7,7.3S8.3,7.3,8.2,7.1C8.1,7,8,6.8,8,6.7s0.1-0.3,0.2-0.5C8.3,6.1,8.5,6,8.7,6S9,6.1,9.1,6.2
		c0.1,0.1,0.2,0.3,0.2,0.5S9.3,7,9.1,7.1z"/>
</g>
</svg>
