<svg xmlns="http://www.w3.org/2000/svg" viewBox="0 0 80.45 81.95"><defs><style>.cls-1{fill:none;}.cls-2{fill:#0c0c0c;}</style></defs><title>Asset 4</title><g id="Layer_2" data-name="Layer 2"><g id="Layer_1-2" data-name="Layer 1"><path class="cls-1" d="M40.18,27.47A13.88,13.88,0,0,0,33,29.68a13,13,0,0,0-5.16,6.4,13.8,13.8,0,0,0,7.31,17.5,12.68,12.68,0,0,0,7.86.88,12.22,12.22,0,0,0,5-2.21,13.05,13.05,0,0,0,5.4-8.76,13.18,13.18,0,0,0-3-11A13.54,13.54,0,0,0,40.18,27.47Z"/><path class="cls-1" d="M70.77,15.82a13.19,13.19,0,0,0-3.21-4.14c-3-2.61-6.62-3.57-10.46-3.79-3.34-.19-6.69-.21-10-.28s-6.84-.13-10.26-.13-6.91,0-10.36.14a32.56,32.56,0,0,0-8.94,1.06,13.46,13.46,0,0,0-6.26,3.91A15.06,15.06,0,0,0,7.7,21a65.82,65.82,0,0,0-.42,7.81c.07,9,.22,18,.37,27a27.76,27.76,0,0,0,1.43,8.89,13.59,13.59,0,0,0,3.85,5.81,15.9,15.9,0,0,0,8.72,3.59,58.17,58.17,0,0,0,6.05.42c4.45.08,8.9.09,13.35.08,5.33,0,10.67.18,16-.24A37,37,0,0,0,61,73.91a14,14,0,0,0,8.18-4.39,12.7,12.7,0,0,0,2.32-3.59,24,24,0,0,0,1.62-8.62c.09-5.33.15-10.66.21-15.38-.16-5.86-.24-11.12-.44-16.38A24,24,0,0,0,70.77,15.82ZM58.9,50a20.16,20.16,0,0,1-8.28,9.31,19.59,19.59,0,0,1-13.15,2.5A19.38,19.38,0,0,1,30,59.15a21.06,21.06,0,0,1-6.11-5.64A21.29,21.29,0,0,1,20,43.81c-.12-.91-.15-1.83-.22-2.75a19.92,19.92,0,0,1,1.46-8,21.15,21.15,0,0,1,5.56-8A20.38,20.38,0,0,1,34,21a18.75,18.75,0,0,1,6.41-.86,20.07,20.07,0,0,1,11.27,3.63,19.91,19.91,0,0,1,6.89,8,21.79,21.79,0,0,1,2,5.94A21.44,21.44,0,0,1,58.9,50Zm2.61-25.79a4.76,4.76,0,0,1-4.93-4.85,4.7,4.7,0,0,1,4.81-4.92,4.92,4.92,0,0,1,4.83,5A4.68,4.68,0,0,1,61.51,24.23Z"/><path class="cls-2" d="M80.44,42.45c-.13-7,0-13.27-.49-19.52A27.63,27.63,0,0,0,77,12.06a20.89,20.89,0,0,0-8.17-8.42A26.13,26.13,0,0,0,57.94.46C55.57.25,53.17.19,50.78.15,47.4.09,44,.11,40.63.08S33.79,0,30.37,0,23.25.21,19.7.6a25.31,25.31,0,0,0-6.48,1.66A19.71,19.71,0,0,0,5.74,7.73,21.64,21.64,0,0,0,.66,18.44,52.66,52.66,0,0,0,0,28.55q.06,11,.23,22a68.6,68.6,0,0,0,1,12.95,21.21,21.21,0,0,0,2.48,6.78A24.46,24.46,0,0,0,10,77.37a21.14,21.14,0,0,0,9.3,3.76,87.08,87.08,0,0,0,13.41.79c2.43,0,4.86,0,7.28,0,3.28,0,6.55,0,9.82,0,2.39,0,4.78-.2,7.17-.25a29.62,29.62,0,0,0,10.2-2A20.41,20.41,0,0,0,74.84,74a21.63,21.63,0,0,0,4.93-10.66,50.88,50.88,0,0,0,.66-9.23C80.47,50,80.44,45.83,80.44,42.45ZM73.1,57.31a24,24,0,0,1-1.62,8.62,12.7,12.7,0,0,1-2.32,3.59A14,14,0,0,1,61,73.91a37,37,0,0,1-3.93.47c-5.33.42-10.67.23-16,.24-4.45,0-8.9,0-13.35-.08a58.17,58.17,0,0,1-6.05-.42,15.9,15.9,0,0,1-8.72-3.59,13.59,13.59,0,0,1-3.85-5.81,27.76,27.76,0,0,1-1.43-8.89c-.15-9-.3-18-.37-27A65.82,65.82,0,0,1,7.7,21a15.06,15.06,0,0,1,3.55-8.4,13.46,13.46,0,0,1,6.26-3.91,32.56,32.56,0,0,1,8.94-1.06c3.45-.09,6.91-.14,10.36-.14s6.84.07,10.26.13,6.69.09,10,.28c3.84.22,7.48,1.18,10.46,3.79a13.19,13.19,0,0,1,3.21,4.14,24,24,0,0,1,2.1,9.73c.2,5.26.28,10.52.44,16.38C73.25,46.65,73.19,52,73.1,57.31Z"/><path class="cls-2" d="M58.54,31.8a19.91,19.91,0,0,0-6.89-8,20.07,20.07,0,0,0-11.27-3.63A18.75,18.75,0,0,0,34,21a20.38,20.38,0,0,0-7.21,4.12,21.15,21.15,0,0,0-5.56,8,19.92,19.92,0,0,0-1.46,8c.07.92.1,1.84.22,2.75a21.29,21.29,0,0,0,3.89,9.7A21.06,21.06,0,0,0,30,59.15a19.38,19.38,0,0,0,7.51,2.68,19.59,19.59,0,0,0,13.15-2.5A20.16,20.16,0,0,0,58.9,50a21.44,21.44,0,0,0,1.59-12.28A21.79,21.79,0,0,0,58.54,31.8ZM53.37,43.49A13.05,13.05,0,0,1,48,52.25a12.22,12.22,0,0,1-5,2.21,12.68,12.68,0,0,1-7.86-.88,13.8,13.8,0,0,1-7.31-17.5A13,13,0,0,1,33,29.68a13.88,13.88,0,0,1,7.19-2.21,13.54,13.54,0,0,1,10.21,5A13.18,13.18,0,0,1,53.37,43.49Z"/><path class="cls-2" d="M61.39,14.46a4.7,4.7,0,0,0-4.81,4.92,4.76,4.76,0,0,0,4.93,4.85,4.68,4.68,0,0,0,4.71-4.8A4.92,4.92,0,0,0,61.39,14.46Z"/></g></g></svg>