<?xml version="1.0" encoding="utf-8"?>
<!-- Generator: Adobe Illustrator 23.0.0, SVG Export Plug-In . SVG Version: 6.00 Build 0)  -->
<svg version="1.1" id="Layer_1" xmlns="http://www.w3.org/2000/svg" xmlns:xlink="http://www.w3.org/1999/xlink" x="0px" y="0px"
	 viewBox="0 0 32 31" style="enable-background:new 0 0 32 31;" xml:space="preserve">
<style type="text/css">
	.st0{fill:none;}
</style>
<g>
	<path class="st0" d="M16,12c1.3,0,2.4-0.4,3.2-1.3c0.9-0.8,1.3-1.9,1.3-3.2s-0.4-2.4-1.3-3.2C18.4,3.4,17.3,3,16,3
		s-2.4,0.4-3.2,1.3c-0.9,0.9-1.3,1.9-1.3,3.2s0.4,2.4,1.3,3.2C13.6,11.6,14.7,12,16,12z"/>
	<path class="st0" d="M27.3,23.8c-2.1-1-4.1-1.7-5.8-2.1C19.7,21.2,17.9,21,16,21s-3.8,0.2-5.5,0.6c-1.8,0.4-3.8,1.1-5.9,2.1
		c-0.5,0.2-0.8,0.6-1.1,1.1S3,25.8,3,26.3V28h26v-1.7c0-0.5-0.2-1-0.5-1.5C28.2,24.3,27.8,24,27.3,23.8z"/>
	<path d="M16,15c2.2,0,4-0.7,5.4-2.1c1.4-1.4,2.1-3.2,2.1-5.4s-0.7-4-2.1-5.4C20,0.7,18.2,0,16,0s-4,0.7-5.4,2.1
		C9.2,3.5,8.5,5.3,8.5,7.5s0.7,4,2.1,5.4C12,14.3,13.8,15,16,15z M12.8,4.3C13.6,3.4,14.7,3,16,3s2.4,0.4,3.2,1.3
		c0.9,0.9,1.3,1.9,1.3,3.2s-0.4,2.4-1.3,3.2C18.4,11.6,17.3,12,16,12s-2.4-0.4-3.2-1.3c-0.9-0.8-1.3-1.9-1.3-3.2S11.9,5.1,12.8,4.3z
		"/>
	<path d="M31,23.1c-0.6-0.9-1.5-1.6-2.5-2c-2.2-1-4.4-1.7-6.4-2.2c-2-0.5-4.1-0.8-6.2-0.8s-4.1,0.3-6.2,0.8S5.6,20,3.4,21
		c-1,0.5-1.8,1.2-2.5,2c-0.6,0.9-1,2-1,3.3V31h32v-4.7C32,25.1,31.7,24,31,23.1z M29,28H3v-1.7c0-0.5,0.2-1,0.5-1.5s0.7-0.8,1.1-1.1
		c2.1-1,4.1-1.7,5.9-2.1c1.8-0.4,3.6-0.6,5.5-0.6s3.7,0.2,5.5,0.6c1.8,0.4,3.7,1.1,5.8,2.1c0.5,0.2,0.9,0.6,1.2,1.1
		c0.3,0.5,0.5,1,0.5,1.5V28z"/>
</g>
</svg>
