<?xml version="1.0" encoding="utf-8"?>
<!-- Generator: Adobe Illustrator 24.1.1, SVG Export Plug-In . SVG Version: 6.00 Build 0)  -->
<svg version="1.1" id="Layer_1" xmlns="http://www.w3.org/2000/svg" xmlns:xlink="http://www.w3.org/1999/xlink" x="0px" y="0px"
	 viewBox="0 0 660 660" style="enable-background:new 0 0 660 660;" xml:space="preserve">
<style type="text/css">
	.st0{fill:none;}
	.st1{fill:#000000;}
</style>
<g>
	<path class="st0" d="M330,60C181.1,60,60,181.1,60,330s121.1,270,270,270s270-121.1,270-270S478.9,60,330,60z M530,370H130v-80h400
		V370z"/>
	<rect x="130" y="290" class="st1" width="400" height="80"/>
	<path class="st1" d="M634.1,201.5c-16.6-39.3-40.4-74.6-70.7-104.9C533,66.4,497.8,42.6,458.5,25.9C417.8,8.7,374.5,0,330,0h0
		c-44.5,0-87.7,8.7-128.4,25.9C162.2,42.6,127,66.4,96.7,96.7C66.4,127,42.6,162.2,25.9,201.5C8.7,242.2,0,285.5,0,330
		s8.7,87.8,25.9,128.5c16.6,39.3,40.4,74.6,70.7,104.9c30.3,30.3,65.6,54.1,104.9,70.7C242.2,651.3,285.5,660,330,660
		s87.8-8.7,128.5-25.9c39.3-16.6,74.6-40.4,104.9-70.7c30.3-30.3,54.1-65.6,70.7-104.9C651.3,417.8,660,374.5,660,330
		S651.3,242.2,634.1,201.5z M330,600C181.1,600,60,478.9,60,330S181.1,60,330,60s270,121.1,270,270S478.9,600,330,600z"/>
</g>
</svg>
