<?xml version="1.0" encoding="utf-8"?>
<!-- Generator: Adobe Illustrator 23.0.0, SVG Export Plug-In . SVG Version: 6.00 Build 0)  -->
<svg version="1.1" id="Layer_1" xmlns="http://www.w3.org/2000/svg" xmlns:xlink="http://www.w3.org/1999/xlink" x="0px" y="0px"
	 viewBox="0 0 417.7 417.7" style="enable-background:new 0 0 417.7 417.7;" xml:space="preserve">
<style type="text/css">
	.st0{clip-path:url(#SVGID_2_);}
</style>
<g>
	<defs>
		<rect id="SVGID_1_" width="417.7" height="417.7"/>
	</defs>
	<clipPath id="SVGID_2_">
		<use xlink:href="#SVGID_1_"  style="overflow:visible;"/>
	</clipPath>
	<path class="st0" d="M208.8,1.5C94.3,1.5,1.5,94.3,1.5,208.8c0,114.6,92.7,207.3,207.3,207.3c114.6,0,207.3-92.7,207.3-207.3
		C416.1,94.3,323.4,1.5,208.8,1.5 M208.8,383.8c-96.7,0-174.9-78.2-174.9-174.9c0-96.7,78.2-174.9,174.9-174.9
		c96.7,0,174.9,78.2,174.9,174.9C383.8,305.5,305.5,383.8,208.8,383.8"/>
	<path class="st0" d="M208.8,417.7c-55.8,0-108.3-21.7-147.7-61.1C21.7,317.1,0,264.7,0,208.8C0,153,21.7,100.6,61.1,61.1
		C100.6,21.7,153,0,208.8,0c55.8,0,108.3,21.7,147.7,61.1c39.4,39.4,61.1,91.9,61.1,147.7c0,55.8-21.7,108.3-61.1,147.7
		C317.1,396,264.7,417.7,208.8,417.7 M208.8,3.1C95.4,3.1,3.1,95.4,3.1,208.8c0,113.5,92.3,205.8,205.8,205.8
		s205.8-92.3,205.8-205.8C414.6,95.4,322.3,3.1,208.8,3.1 M208.8,385.3c-47.2,0-91.5-18.3-124.8-51.7
		C50.7,300.3,32.4,256,32.4,208.8c0-47.2,18.3-91.5,51.7-124.8c33.3-33.3,77.6-51.7,124.8-51.7c47.2,0,91.5,18.3,124.8,51.7
		c33.3,33.3,51.7,77.6,51.7,124.8c0,47.2-18.3,91.5-51.7,124.8C300.3,367,256,385.3,208.8,385.3 M208.8,35.5
		c-95.6,0-173.4,77.8-173.4,173.4s77.8,173.4,173.4,173.4s173.4-77.8,173.4-173.4S304.4,35.5,208.8,35.5"/>
	<path class="st0" d="M208.8,242.6c8.9,0,16.2-7.3,16.2-16.2V122.1c0-8.9-7.3-16.2-16.2-16.2c-8.9,0-16.2,7.3-16.2,16.2v104.3
		C192.6,235.3,199.9,242.6,208.8,242.6"/>
	<path class="st0" d="M208.8,244.1c-9.8,0-17.7-8-17.7-17.7V122.1c0-9.8,8-17.7,17.7-17.7c9.8,0,17.7,8,17.7,17.7v104.3
		C226.6,236.2,218.6,244.1,208.8,244.1 M208.8,107.5c-8.1,0-14.7,6.6-14.7,14.7v104.3c0,8.1,6.6,14.6,14.7,14.6
		c8.1,0,14.6-6.6,14.6-14.6V122.1C223.5,114,216.9,107.5,208.8,107.5"/>
	<path class="st0" d="M208.8,262.4c-12.1,0-21.9,9.8-21.9,21.9c0,12.1,9.8,21.9,21.9,21.9c12.1,0,21.9-9.8,21.9-21.9
		C230.7,272.2,220.9,262.4,208.8,262.4"/>
	<path class="st0" d="M208.8,307.7c-12.9,0-23.4-10.5-23.4-23.4c0-12.9,10.5-23.4,23.4-23.4c12.9,0,23.4,10.5,23.4,23.4
		C232.3,297.2,221.8,307.7,208.8,307.7 M208.8,264c-11.2,0-20.3,9.1-20.3,20.3c0,11.2,9.1,20.3,20.3,20.3c11.2,0,20.3-9.1,20.3-20.3
		C229.2,273.1,220,264,208.8,264"/>
</g>
</svg>
