<svg xmlns="http://www.w3.org/2000/svg" xmlns:xlink="http://www.w3.org/1999/xlink" viewBox="0 0 19 19"><defs><style>.cls-1{fill:none;}.cls-2{clip-path:url(#clip-path);}</style><clipPath id="clip-path" transform="translate(0)"><rect class="cls-1" width="19" height="19"/></clipPath></defs><title>Asset 1</title><g id="Layer_2" data-name="Layer 2"><g id="Layer_1-2" data-name="Layer 1"><g class="cls-2"><path d="M14.45,12.57a1.34,1.34,0,0,0-2,0C12,13,11.49,13.5,11,14a.29.29,0,0,1-.39.07c-.3-.17-.63-.3-.92-.48A14.74,14.74,0,0,1,6.2,10.36a8.07,8.07,0,0,1-1.26-2A.29.29,0,0,1,5,8c.47-.45.93-.92,1.39-1.39a1.33,1.33,0,0,0,0-2.06c-.37-.37-.74-.73-1.1-1.1L4.16,2.28a1.33,1.33,0,0,0-2,0c-.48.47-.93,1-1.42,1.4A2.37,2.37,0,0,0,0,5.23,6.63,6.63,0,0,0,.52,8.05a17.27,17.27,0,0,0,3,5.06A18.85,18.85,0,0,0,9.79,18a8.86,8.86,0,0,0,3.45,1,2.51,2.51,0,0,0,2.17-.82c.41-.45.86-.86,1.29-1.3a1.34,1.34,0,0,0,0-2Z" transform="translate(0)"/><path d="M13.69,9.42l1.46-.25A6.55,6.55,0,0,0,9.61,3.79L9.4,5.26a5.08,5.08,0,0,1,4.29,4.16Z" transform="translate(0)"/><path d="M16,3.08A10.71,10.71,0,0,0,9.8,0L9.6,1.47a9.36,9.36,0,0,1,7.94,7.69L19,8.92A10.77,10.77,0,0,0,16,3.08Z" transform="translate(0)"/></g></g></g></svg>