<svg xmlns="http://www.w3.org/2000/svg" xmlns:xlink="http://www.w3.org/1999/xlink" viewBox="0 0 660 660"><defs><style>.cls-1{fill:none;}.cls-2{clip-path:url(#clip-path);}</style><clipPath id="clip-path" transform="translate(0 0)"><rect class="cls-1" width="660" height="660"/></clipPath></defs><g id="Layer_2" data-name="Layer 2"><g id="Layer_1-2" data-name="Layer 1"><polygon points="370 130 290 130 290 290 130 290 130 370 290 370 290 530 370 530 370 370 530 370 530 290 370 290 370 130"/><g class="cls-2"><path d="M563.34,96.65a329.11,329.11,0,1,0,70.71,104.89A329,329,0,0,0,563.34,96.65M330,600C181.12,600,60,478.88,60,330S181.12,60,330,60,600,181.12,600,330,478.88,600,330,600" transform="translate(0 0)"/></g></g></g></svg>