<svg xmlns="http://www.w3.org/2000/svg" viewBox="0 0 15.06 12.24"><title>Asset 1</title><g id="Layer_2" data-name="Layer 2"><g id="Layer_1-2" data-name="Layer 1"><path d="M15.06,1.45a6.71,6.71,0,0,1-1.78.49A3.12,3.12,0,0,0,14.64.23a6.13,6.13,0,0,1-2,.75A3.08,3.08,0,0,0,7.34,3.09a3.2,3.2,0,0,0,.07.7A8.69,8.69,0,0,1,1.05.56,3.06,3.06,0,0,0,.63,2.12,3.1,3.1,0,0,0,2,4.69,3,3,0,0,1,.6,4.31v0a3.11,3.11,0,0,0,2.48,3,3.59,3.59,0,0,1-.81.1,2.32,2.32,0,0,1-.59-.06A3.12,3.12,0,0,0,4.57,9.58,6.22,6.22,0,0,1,.74,10.89a6,6,0,0,1-.74,0,8.72,8.72,0,0,0,4.74,1.39,8.72,8.72,0,0,0,8.78-8.79c0-.14,0-.27,0-.4A6.21,6.21,0,0,0,15.06,1.45Z"/></g></g></svg>