<?xml version="1.0" encoding="utf-8"?>
<!-- Generator: Adobe Illustrator 23.0.0, SVG Export Plug-In . SVG Version: 6.00 Build 0)  -->
<svg version="1.1" id="Layer_1" xmlns="http://www.w3.org/2000/svg" xmlns:xlink="http://www.w3.org/1999/xlink" x="0px" y="0px"
	 viewBox="0 0 124 144" style="enable-background:new 0 0 124 144;" xml:space="preserve">
<style type="text/css">
	.st0{fill:none;}
	.st1{fill:#1E1E1E;}
</style>
<g>
	<path class="st0" d="M95.7,26.1c2.4-2.1,3.9-5.1,4.5-8.9c-4.7,0.1-8.2,1.5-10.5,4.4c-0.8,1-1.3,2-1.7,2.9c2.3,1.2,3.9,2.4,5,3.5
		C93.7,27.6,94.7,27,95.7,26.1z"/>
	<path class="st0" d="M79.5,50.2L76.2,49c-1.9-0.7-2.8-2.7-2.2-4.6c0.7-1.9,2.7-2.8,4.6-2.2l5.6,2c2.6-3.8,4.5-7.9,3.9-11
		c-0.5-0.7-2.6-2.2-5.9-3.6c0,0,0,0,0,0c-0.4-0.2-0.8-0.3-1.2-0.5c-4.5-1.8-7.2-1.8-7.8-1.6c-0.4,0.2-1.4,1-2.8,3.3l3.3,1.1
		c1.9,0.6,2.9,2.6,2.3,4.5C75.5,38,74.1,39,72.6,39c-0.4,0-0.7-0.1-1.1-0.2l-3.9-1.3c-0.4,1.3-0.9,2.8-1.3,4.5
		c-0.9,3.4-1.6,6.7-2.1,9.1h14.5C78.9,50.8,79.2,50.5,79.5,50.2z"/>
	<path class="st0" d="M81.3,21.6c0.6-1.4,1.5-3,2.7-4.6c0.8-1,1.7-1.9,2.9-2.8c-0.5-0.7-1-1.5-1.6-2.3c-1.4-2-2.6-3.2-3.4-3.9
		c-3.4,5.3-3.4,10.3-3.1,13C79.7,21.1,80.5,21.4,81.3,21.6z"/>
	<path class="st0" d="M89.7,48.9c-0.4,0.6-0.9,1.2-1.3,1.8c0,0,0,0,0,0c-0.1,0.1-0.2,0.2-0.3,0.3h20.7c2.4-2.6,2.7-4.6,2.3-5.3
		c-0.5-0.8-2.2-1.2-4.5-0.4c-1,0.4-2.1,0.2-3-0.3c-0.9-0.6-1.5-1.5-1.7-2.5c-0.1-0.9-0.4-1-0.6-1.1c-1.5-0.8-5.3,0-7.7,0.9
		C92.6,44.5,91.3,46.7,89.7,48.9z"/>
	<path class="st0" d="M7.2,72c0,14.6,5.7,28.4,16.1,38.8c10.4,10.4,24.1,16.1,38.8,16.1c14.6,0,28.4-5.7,38.8-16.1
		c10.4-10.4,16.1-24.1,16.1-38.8V58.3H7.2V72z"/>
	<path class="st0" d="M56.8,51.1c0.5-2.6,1.3-6.7,2.5-11c1.1-3.9,2.2-7.2,3.4-9.9c-1.2-0.6-5-1.7-11.7,2.5c-1.2,0.7-2.7,0.7-3.8,0
		c-1.2-0.7-1.8-2.1-1.6-3.5c0.1-0.7,0-1.8-1.4-3.1c-2.9-2.6-8.8-3.8-11.9-3.1c-7.4,1.7-7.4,5.4-7.4,8.3c0,1.5,0,3.7-2,4.9
		c-0.6,0.4-2.2,1.1-4.2,0c-1.4-0.8-4.3-1.7-6-0.8c-1.4,0.7-2,2.7-2.2,4.4c-0.4,2.8,0.9,6.8,3.8,11.4H56.8z"/>
	<path class="st0" d="M40.7,130.3v3.8c5.5,1.8,11.2,2.7,17,2.7h8.7c5.8,0,11.5-0.9,17-2.7v-3.8c-6.7,2.5-13.9,3.7-21.3,3.7
		C54.6,134,47.5,132.8,40.7,130.3z"/>
	<path class="st1" d="M120.4,51.1h-3c0.2-0.5,0.4-1,0.5-1.4c0.8-2.7,0.6-5.4-0.7-7.6c-1.9-3.1-5.5-4.6-9.6-4.2
		c-0.9-1.3-1.9-2.2-2.9-2.7c-2.5-1.4-5.5-1.4-8.1-1c1.1-0.5,2.2-1.3,3.4-2.2c3.4-2.8,7.5-8.3,7.5-18.1c0-1.8-1.4-3.4-3.2-3.6
		c-4.4-0.5-8-0.1-11,0.7c-0.7-1.1-1.5-2.4-2.4-3.6c-3.7-5-7.1-7.4-10.4-7.3c-1.1,0-2,0.5-2.7,1.4c-5.8,7.3-6.5,14.6-6.2,19.2
		c-0.7,0.2-1.3,0.4-1.9,0.7c-1.2,0.6-2.3,1.6-3.3,2.8c-1-0.6-2.6-1.2-4.7-1.5c-3.2-0.4-6.6,0.2-10.2,1.7c-0.6-1.3-1.6-2.4-2.7-3.5
		C44,16.4,35.5,14.9,30.5,16c-5.5,1.2-9.3,3.7-11.3,7.4c-0.9,1.7-1.4,3.4-1.5,4.9c-0.3-0.1-0.5-0.1-0.8-0.2
		c-2.7-0.5-5.3-0.2-7.4,0.8c-4.2,2.1-5.6,6.4-6.1,9.7c-0.6,3.6,0.3,7.8,2.7,12.5H3.6c-2,0-3.6,1.6-3.6,3.6V72
		c0,16.6,6.5,32.1,18.2,43.8c4.6,4.6,9.8,8.4,15.4,11.3c0,0.1,0,0.1,0,0.2v9.4c0,1.5,0.9,2.8,2.3,3.4c7,2.6,14.3,3.9,21.8,4h8.7
		c7.5,0,14.8-1.3,21.8-4c1.4-0.5,2.3-1.9,2.3-3.4v-9.4c0-0.1,0-0.1,0-0.2c5.6-2.9,10.8-6.7,15.4-11.3C117.6,104.2,124,88.6,124,72
		V54.7C124,52.7,122.4,51.1,120.4,51.1z M101.2,41.4c0.2,0.1,0.4,0.2,0.6,1.1c0.2,1.1,0.8,2,1.7,2.5c0.9,0.6,2,0.7,3,0.3
		c2.3-0.8,4-0.4,4.5,0.4c0.5,0.7,0.1,2.7-2.3,5.3H88.1c0.1-0.1,0.2-0.2,0.3-0.3c0,0,0,0,0,0c0.4-0.6,0.9-1.2,1.3-1.8
		c1.6-2.3,2.9-4.5,3.8-6.5C95.9,41.4,99.8,40.6,101.2,41.4z M89.6,21.6c2.3-2.8,5.8-4.3,10.5-4.4c-0.5,3.8-2,6.8-4.5,8.9
		c-1,0.8-2,1.4-2.8,1.8c-1.1-1.1-2.7-2.3-5-3.5C88.3,23.6,88.8,22.6,89.6,21.6z M82,8c0.8,0.7,2,1.9,3.4,3.9
		c0.6,0.8,1.1,1.6,1.6,2.3c-1.2,0.9-2.1,1.9-2.9,2.8c-1.3,1.6-2.1,3.2-2.7,4.6c-0.8-0.2-1.6-0.5-2.4-0.7C78.6,18.3,78.6,13.3,82,8z
		 M66.2,42c0.5-1.7,0.9-3.1,1.3-4.5l3.9,1.3c0.4,0.1,0.7,0.2,1.1,0.2c1.5,0,2.9-1,3.4-2.5c0.6-1.9-0.4-3.9-2.3-4.5l-3.3-1.1
		c1.3-2.3,2.3-3.1,2.8-3.3c0.6-0.3,3.3-0.2,7.8,1.6c0.4,0.2,0.8,0.3,1.2,0.5c0,0,0,0,0,0c3.3,1.4,5.4,3,5.9,3.6
		c0.6,3-1.3,7.1-3.9,11l-5.6-2c-1.9-0.7-3.9,0.3-4.6,2.2c-0.7,1.9,0.3,3.9,2.2,4.6l3.3,1.2c-0.3,0.3-0.6,0.6-0.9,0.9H64.1
		C64.6,48.7,65.3,45.4,66.2,42z M10.4,39.7c0.2-1.6,0.8-3.7,2.2-4.4c1.7-0.8,4.6,0.1,6,0.8c2,1.1,3.6,0.4,4.2,0c2-1.2,2-3.4,2-4.9
		c0-3-0.1-6.6,7.4-8.3c3.1-0.7,9,0.5,11.9,3.1c1.5,1.3,1.5,2.4,1.4,3.1c-0.2,1.4,0.5,2.7,1.6,3.5c1.2,0.7,2.7,0.8,3.8,0
		c6.8-4.2,10.5-3.1,11.7-2.5c-1.2,2.7-2.4,6-3.4,9.9c-1.2,4.3-2,8.4-2.5,11H14.2C11.3,46.5,10,42.6,10.4,39.7z M83.3,134.1
		c-5.5,1.8-11.1,2.7-17,2.7h-8.7c-5.8,0-11.5-0.9-17-2.7v-3.8c6.7,2.5,13.9,3.7,21.3,3.7c7.4,0,14.6-1.3,21.3-3.7V134.1z M116.8,72
		c0,14.6-5.7,28.4-16.1,38.8c-10.4,10.4-24.1,16.1-38.8,16.1c-14.6,0-28.4-5.7-38.8-16.1C12.9,100.4,7.2,86.7,7.2,72V58.3h109.6V72z
		"/>
</g>
</svg>
