<?xml version="1.0" encoding="utf-8"?>
<!-- Generator: Adobe Illustrator 23.0.0, SVG Export Plug-In . SVG Version: 6.00 Build 0)  -->
<svg version="1.1" id="Layer_1" xmlns="http://www.w3.org/2000/svg" xmlns:xlink="http://www.w3.org/1999/xlink" x="0px" y="0px"
	 viewBox="0 0 356.4 302.9" style="enable-background:new 0 0 356.4 302.9;" xml:space="preserve">
<style type="text/css">
	
		.st0{clip-path:url(#SVGID_2_);fill:none;stroke:#000000;stroke-width:14;stroke-linecap:round;stroke-linejoin:round;stroke-miterlimit:10;}
	.st1{fill:none;stroke:#000000;stroke-width:14;stroke-linecap:round;stroke-linejoin:round;stroke-miterlimit:10;}
</style>
<g>
	<defs>
		<rect id="SVGID_1_" width="356.4" height="302.9"/>
	</defs>
	<clipPath id="SVGID_2_">
		<use xlink:href="#SVGID_1_"  style="overflow:visible;"/>
	</clipPath>
	<polyline class="st0" points="263.8,295.9 103.3,295.9 7,295.9 210.3,7 349.4,7 	"/>
	<polygon class="st0" points="349.4,7 349.4,295.9 146.1,295.9 	"/>
</g>
<polyline class="st1" points="67.5,212.2 81.9,222.6 96.4,212.2 110.8,222.6 125.2,212.2 139.7,222.6 154.1,212.2 168.5,222.6 
	183,212.2 197.5,222.6 "/>
<polyline class="st1" points="167.7,68.2 182.2,78.9 196.6,68.2 211.1,78.9 225.6,68.2 240,78.9 254.5,68.2 269,78.9 283.5,68.2 
	298,78.9 "/>
</svg>
