<?xml version="1.0" encoding="utf-8"?>
<!-- Generator: Adobe Illustrator 23.0.0, SVG Export Plug-In . SVG Version: 6.00 Build 0)  -->
<svg version="1.1" id="Layer_1" xmlns="http://www.w3.org/2000/svg" xmlns:xlink="http://www.w3.org/1999/xlink" x="0px" y="0px"
	 viewBox="0 0 341.5 489.6" style="enable-background:new 0 0 341.5 489.6;" xml:space="preserve">
<style type="text/css">
	.st0{fill:none;}
	.st1{fill:#09AA6E;}
</style>
<g>
	<path class="st0" d="M167.9,227.1c-53,0-86.5,36.7-86.5,94.9c0,57.2,33.5,94.9,86.5,94.9c49.4,0,82.5-33.9,85.7-86.3
		c0.1-0.8,0.2-1.6,0.2-2.5c0.1-2.2,0.1-4.4,0.2-6.8c0-2.6-0.1-5.1-0.3-7.6C250.6,260.4,217.5,227.1,167.9,227.1z"/>
	<path class="st1" d="M220.9,163.1c19.9,45.5,31.4,95.5,32.7,148c-0.3-6.2-1-12.3-2-18.3C229.9,155.9,35.8,146.5,4.5,281.6
		C1.6,294.4,0,308,0,322.1c0,89.3,62.4,154.8,143.4,165.8c8,1.1,16.2,1.7,24.5,1.7c18.2,0,35.7-2.7,52.1-7.8
		c66.8-20.6,114.8-80.9,114.8-159.7C334.9,243.6,287.5,183.8,220.9,163.1z M253.8,328.1c0,0.9-0.1,1.7-0.2,2.5
		c-3.2,52.4-36.3,86.3-85.7,86.3c-53,0-86.5-37.7-86.5-94.9c0-58.2,33.5-94.9,86.5-94.9c49.6,0,82.7,33.3,85.8,86.6
		c0.2,2.5,0.3,5,0.3,7.6C253.9,323.7,253.9,325.9,253.8,328.1z"/>
	<path class="st1" d="M212.9,131.1c44.4,1.8,64.7-10.5,74.9-22.7c23.4-27.7,12.7-76.1,51.3-105.3c1-0.8,1.9-1.4,2.4-1.8
		C237.1-10.5,165.2,61.1,212.9,131.1z"/>
</g>
</svg>
