<?xml version="1.0" encoding="utf-8"?>
<!-- Generator: Adobe Illustrator 23.0.0, SVG Export Plug-In . SVG Version: 6.00 Build 0)  -->
<svg version="1.1" id="Layer_1" xmlns="http://www.w3.org/2000/svg" xmlns:xlink="http://www.w3.org/1999/xlink" x="0px" y="0px"
	 viewBox="0 0 1536 489.6" style="enable-background:new 0 0 1536 489.6;" xml:space="preserve">
<style type="text/css">
	.st0{fill:none;}
	.st1{fill:#09AA6E;}
	.st2{fill:#383737;}
</style>
<g>
	<path class="st0" d="M852.3,290.5c-20.3,0-38.7,15.5-38.7,43.7S832,378,852.3,378c20.6,0,39-15.8,39-44.1S872.9,290.5,852.3,290.5z
		"/>
	<path class="st0" d="M167.9,227.3c-53,0-86.5,36.7-86.5,94.9c0,57.2,33.5,94.9,86.5,94.9c49.5,0,82.5-34,85.7-86.3
		c0.1-0.9,0.1-1.7,0.2-2.5c0.1-2.2,0.1-4.5,0.1-6.7c0-2.6-0.1-5.1-0.3-7.6C250.6,260.5,217.5,227.3,167.9,227.3z"/>
	<path class="st0" d="M1275.1,286.7c-17.8,0-31.4,10.8-34.6,30.4h67.8C1308.4,297.8,1293.2,286.7,1275.1,286.7z"/>
	<path class="st1" d="M220.9,163.1c19.9,45.5,31.4,95.5,32.7,148c-0.3-6.2-1-12.3-2-18.3C229.9,155.9,35.8,146.5,4.5,281.6
		C1.6,294.4,0,308,0,322.1c0,89.3,62.4,154.8,143.4,165.8c8,1.1,16.2,1.7,24.5,1.7c18.2,0,35.7-2.7,52.1-7.8
		c66.8-20.6,114.8-80.9,114.8-159.7C334.9,243.6,287.5,183.8,220.9,163.1z M253.8,328.1c0,0.9-0.1,1.7-0.2,2.5
		c-3.2,52.4-36.3,86.3-85.7,86.3c-53,0-86.5-37.7-86.5-94.9c0-58.2,33.5-94.9,86.5-94.9c49.6,0,82.7,33.3,85.8,86.6
		c0.2,2.5,0.3,5,0.3,7.6C253.9,323.7,253.9,325.9,253.8,328.1z"/>
	<path class="st1" d="M212.9,131.1c44.4,1.8,64.7-10.5,74.9-22.7c23.4-27.7,12.7-76.1,51.3-105.3c1-0.8,1.9-1.4,2.4-1.8
		C237.1-10.5,165.2,61.1,212.9,131.1z"/>
	<path class="st2" d="M483,244.3c0-18.7,7.3-25,28.2-23.8v-46c-53.9-2.9-82.4,20-82.4,66.2v5.1h-19.7v45h19.7v131.9H483V290.9h29.2
		v-45H483V244.3z"/>
	<path class="st2" d="M564.8,168.8c-19.3,0-32.3,13-32.3,29.5c0,16.2,13,29.2,32.3,29.2c19,0,32-13,32-29.2
		C596.8,181.8,583.8,168.8,564.8,168.8z"/>
	<rect x="537.5" y="245.9" class="st2" width="54.2" height="176.9"/>
	<path class="st2" d="M693.8,361.9v-71h35.5v-45h-35.5v-43.1h-54.2v43.1H618v45h21.6v70.4c0,46,25.7,61.5,62.4,61.5h27.6v-46h-19.3
		C698.2,376.8,693.8,372.3,693.8,361.9z"/>
	<path class="st2" d="M868.5,243.3c-25.4,0-44.7,11.7-54.5,27.6v-82.7h-54.2v234.6h54.2V398c9.8,15.5,28.5,27.3,54.5,27.3
		c43.4,0,78-35.5,78-91.3C946.4,278.2,912.2,243.3,868.5,243.3z M852.3,378c-20.3,0-38.7-15.5-38.7-43.7s18.4-43.7,38.7-43.7
		c20.6,0,39,15.2,39,43.4S872.9,378,852.3,378z"/>
	<rect x="975" y="245.9" class="st2" width="54.2" height="176.9"/>
	<path class="st2" d="M1002.2,168.8c-19.3,0-32.3,13-32.3,29.5c0,16.2,13,29.2,32.3,29.2c19,0,32-13,32-29.2
		C1034.2,181.8,1021.2,168.8,1002.2,168.8z"/>
	<path class="st2" d="M1131.2,361.9v-71h35.5v-45h-35.5v-43.1H1077v43.1h-21.6v45h21.6v70.4c0,46,25.7,61.5,62.4,61.5h27.6v-46
		h-19.3C1135.7,376.8,1131.2,372.3,1131.2,361.9z"/>
	<path class="st2" d="M1275.8,243.3c-52.6,0-89.4,34.9-89.4,91c0,56.1,37.4,91,89.4,91c44.1,0,75.4-26.6,84-61.2h-57.7
		c-4.4,9.5-13,17.1-28.2,17.1c-17.4,0-31.7-10.8-33.6-33.9h122.7c0.6-5.4,1-10.8,1-15.8C1363.9,277.6,1327.4,243.3,1275.8,243.3z
		 M1240.6,317.2c3.2-19.7,16.8-30.4,34.6-30.4c18.1,0,33.3,11.1,33.3,30.4H1240.6z"/>
	<path class="st2" d="M1439.3,297.2c0-8.6,7-13.6,19.7-13.6c15.2,0,24.4,7.9,26,20h50.1c-3.5-34.9-28.8-60.2-74.5-60.2
		c-46.3,0-72,24.7-72,54.8c0,65,96.4,44.4,96.4,72.9c0,7.9-7.3,14.3-21.2,14.3c-14.9,0-26-8.2-27.3-20.6h-53.6
		c2.5,34.2,34.2,60.5,81.5,60.5c44.4,0,71.6-23.1,71.6-53.9C1535,305.4,1439.3,325.4,1439.3,297.2z"/>
</g>
</svg>
