<?xml version="1.0" encoding="utf-8"?>
<!-- Generator: Adobe Illustrator 23.0.0, SVG Export Plug-In . SVG Version: 6.00 Build 0)  -->
<svg version="1.1" id="Layer_1" xmlns="http://www.w3.org/2000/svg" xmlns:xlink="http://www.w3.org/1999/xlink" x="0px" y="0px"
	 viewBox="0 0 33 21.9" style="enable-background:new 0 0 33 21.9;" xml:space="preserve">
<style type="text/css">
	.st0{clip-path:url(#SVGID_2_);fill:none;stroke:#000000;stroke-linecap:round;stroke-linejoin:round;stroke-miterlimit:10;}
</style>
<g>
	<defs>
		<rect id="SVGID_1_" width="33" height="21.9"/>
	</defs>
	<clipPath id="SVGID_2_">
		<use xlink:href="#SVGID_1_"  style="overflow:visible;"/>
	</clipPath>
	<rect x="26.1" y="0.8" transform="matrix(0.8783 -0.478 0.478 0.8783 0.4153 14.2047)" class="st0" width="4" height="11"/>
	<path class="st0" d="M23.7,2.4l5.3,9.7l-1.7,2.5c-0.5,0.8-1.2,1.4-2.1,1.8l-8.9,4.8c-0.7,0.4-1.6,0.1-2-0.6c-0.4-0.7-0.1-1.6,0.6-2
		l3.1-1.7l-4.8,2.6c-0.7,0.4-1.6,0.1-2-0.6c-0.4-0.7-0.1-1.6,0.6-2l4.8-2.6l-6.6,3.6c-0.7,0.4-1.6,0.1-2-0.6c-0.4-0.7-0.1-1.6,0.6-2
		l6.6-3.6l-4.8,2.6c-0.7,0.4-1.6,0.1-2-0.6c-0.4-0.7-0.1-1.6,0.6-2l2-1.1"/>
	<rect x="-1.7" y="5.1" transform="matrix(0.241 -0.9705 0.9705 0.241 -4.074 9.078)" class="st0" width="11" height="4"/>
	<path class="st0" d="M6.7,14.9l-2.3-2L7,2.3l3-0.7c0.9-0.2,1.9-0.2,2.8,0l7.8,1.9c0.8,0.2,1.3,1,1.1,1.8c-0.2,0.8-1,1.3-1.8,1.1
		l-4.4-1.1c-0.5,2.1-2.7,3.5-4.8,2.9l-1-0.2"/>
</g>
</svg>
