<?xml version="1.0" encoding="utf-8"?>
<!-- Generator: Adobe Illustrator 23.0.0, SVG Export Plug-In . SVG Version: 6.00 Build 0)  -->
<svg version="1.1" id="Layer_1" xmlns="http://www.w3.org/2000/svg" xmlns:xlink="http://www.w3.org/1999/xlink" x="0px" y="0px"
	 viewBox="0 0 755.1 1042" style="enable-background:new 0 0 755.1 1042;" xml:space="preserve">
<style type="text/css">
	.st0{clip-path:url(#SVGID_2_);fill:none;stroke:#000000;stroke-width:42;stroke-miterlimit:10;}
	
		.st1{clip-path:url(#SVGID_2_);fill:none;stroke:#000000;stroke-width:42;stroke-linecap:round;stroke-linejoin:round;stroke-miterlimit:10;}
</style>
<g>
	<defs>
		<rect id="SVGID_1_" width="755.1" height="1042"/>
	</defs>
	<clipPath id="SVGID_2_">
		<use xlink:href="#SVGID_1_"  style="overflow:visible;"/>
	</clipPath>
	<circle class="st0" cx="377.6" cy="377.6" r="236.8"/>
	<path class="st0" d="M734.1,377.6c0,30.5-34.3,56.2-41.8,84.3c-7.8,29.1,8.9,68.4-5.9,94c-15,25.9-57.5,31-78.5,52
		c-21,21-26.1,63.5-52,78.5c-25.5,14.8-64.8-1.9-94,5.9c-28.2,7.5-53.8,41.8-84.3,41.8c-30.5,0-56.2-34.3-84.3-41.8
		c-29.1-7.8-68.4,8.9-94-5.9c-25.9-15-31-57.5-52-78.5c-21-21-63.5-26.1-78.5-52c-14.8-25.5,1.9-64.8-5.9-94
		C55.3,433.7,21,408.1,21,377.6c0-30.5,34.3-56.2,41.8-84.3c7.8-29.1-8.9-68.4,5.9-94c15-25.9,57.5-31,78.5-52
		c21-21,26.1-63.5,52-78.5c25.5-14.8,64.8,1.9,94-5.9C321.4,55.3,347,21,377.6,21c30.5,0,56.2,34.3,84.3,41.8
		c29.1,7.8,68.4-8.9,94,5.9c25.9,15,31,57.5,52,78.5c21,21,63.5,26.1,78.5,52c14.8,25.5-1.9,64.8,5.9,94
		C699.8,321.4,734.1,347,734.1,377.6z"/>
	<polyline class="st1" points="582.3,652.3 732.6,912.7 600,899.6 545,1021 379.3,734.1 	"/>
	<polyline class="st1" points="172.8,652.3 22.5,912.7 155.2,899.6 210.1,1021 375.8,734.1 	"/>
	<polyline class="st1" points="248.8,381.9 331.7,464.9 506.3,290.3 	"/>
</g>
</svg>
