<?xml version="1.0" encoding="utf-8"?>
<!-- Generator: Adobe Illustrator 23.0.0, SVG Export Plug-In . SVG Version: 6.00 Build 0)  -->
<svg version="1.1" id="Layer_1" xmlns="http://www.w3.org/2000/svg" xmlns:xlink="http://www.w3.org/1999/xlink" x="0px" y="0px"
	 viewBox="0 0 247.7 247.7" style="enable-background:new 0 0 247.7 247.7;" xml:space="preserve">
<style type="text/css">
	.st0{fill:#4CAF50;}
	.st1{fill:#FFFFFF;}
</style>
<g>
	<path class="st0" d="M233.9,95.1c-7.9-6.9-13.5-14.5-11.7-25.8c0.5-2.9-0.4-6-0.6-8.9c-0.8-20.2-14.5-33.8-34.6-34.5
		c-22.2-0.7-22.2-0.7-38.6-16.3c-9-8.6-19.9-10.9-31.9-8.9C106.9,2.3,99.8,8,93.7,15c-6.2,7.3-13.3,11.7-23.4,10.2
		c-3.4-0.5-7,0.4-10.4,0.6c-19.5,0.8-34,14.7-33.6,34.2C26.7,76,22.6,88.6,10.1,99c-7.2,5.9-10.3,14.6-10,24.6
		c-0.7,12,5.2,21.3,14.1,29.1c7.6,6.7,13.1,14,11.3,25c-0.5,3,0.4,6.3,0.6,9.4c0.8,20.1,14.6,33.8,34.7,34.3
		c22.3,0.7,22.3,0.7,38.2,16.1c12.3,11.9,30.8,13.7,45,3.8c3.8-2.6,7.3-5.9,10.3-9.4c6.1-7.3,13.3-11.2,23.1-9.9
		c3.4,0.4,7-0.5,10.4-0.6c19.5-0.8,34.2-14.6,33.6-34.1c-0.5-16.2,4.1-28.8,16.6-39.2c6.4-5.3,9.2-13.2,9.8-21.8
		C248.5,113.4,243.4,103.2,233.9,95.1z M176.8,101.6c-9.9,10.2-20,20.1-30,30.1c-10.4,10.4-20.7,20.8-31.1,31.1
		c-7.3,7.2-14,7.2-21.3,0c-7.3-7.3-14.6-14.6-21.9-21.9c-7-7-7.6-14.3-1.8-20.2c6-6.1,13.2-5.5,20.5,1.8c4.3,4.2,8.5,8.4,12.8,12.7
		c0.2,0.2,0.6,0.3,1.5,0.8c15.8-15.9,31.6-31.7,47.4-47.4c1.8-1.8,3.5-3.6,5.3-5.3c5.9-5.4,13.5-5.4,18.7,0.1
		C182.1,88.6,182.2,96,176.8,101.6z"/>
	<path class="st1" d="M158.2,83.2c-1.8,1.7-3.6,3.5-5.3,5.3c-15.8,15.8-31.5,31.6-47.4,47.4c-0.9-0.5-1.3-0.6-1.5-0.8
		c-4.3-4.2-8.5-8.4-12.8-12.7c-7.3-7.3-14.5-7.9-20.5-1.8c-5.8,5.9-5.2,13.1,1.8,20.2c7.3,7.3,14.6,14.6,21.9,21.9
		c7.3,7.2,14,7.3,21.3,0c10.4-10.3,20.7-20.7,31.1-31.1c10-10,20.1-19.9,30-30.1c5.5-5.6,5.3-13,0.2-18.3
		C171.7,77.9,164.1,77.8,158.2,83.2z"/>
</g>
</svg>
