<?xml version="1.0" encoding="utf-8"?>
<!-- Generator: Adobe Illustrator 23.0.0, SVG Export Plug-In . SVG Version: 6.00 Build 0)  -->
<svg version="1.1" id="Layer_1" xmlns="http://www.w3.org/2000/svg" xmlns:xlink="http://www.w3.org/1999/xlink" x="0px" y="0px"
	 viewBox="0 0 113.4 172.7" style="enable-background:new 0 0 113.4 172.7;" xml:space="preserve">
<style type="text/css">
	.st0{fill:none;}
</style>
<g>
	<path class="st0" d="M49.9,51.1c1.7-2.4,3.6-5,5.7-7.6c0.1-0.1,0.2-0.3,0.4-0.4l-0.4-3.9l-0.4-4.4l-1.5-15.1
		c-2.2,2.2-4.2,4.6-6,7.1c-0.4,0.6-0.8,1.2-1.2,1.9c-0.4,0.6-0.8,1.3-1.2,2c-4.5,7.7-7,16.6-7,26.1c0,3.8,0.5,7.6,1.3,11.4
		c1.7-3.2,4.1-7.7,7.5-12.8C47.9,53.9,48.9,52.5,49.9,51.1z"/>
	<path class="st0" d="M10.3,17.2c-1.7,0-3.5,0.1-5.5,0.3c-0.2,2-0.3,3.8-0.3,5.5c0,19.9,11.2,37.2,27.6,46c0.7,0.4,1.5,0.8,2.3,1.1
		c0.4,0.2,0.8,0.4,1.2,0.5c-0.5-1.9-0.9-3.9-1.2-5.8c-0.4-2.7-0.6-5.4-0.6-8.2c0-1.9,0.1-3.8,0.3-5.7c0.8-8.5,3.6-16.4,7.7-23.3
		C33,21.1,22.1,17.2,10.3,17.2z"/>
	<path class="st0" d="M68.4,29.6c0.2-0.3,0.5-0.5,0.8-0.7c8.8-8.3,19.6-16.4,32.6-23C98.1,5,94.2,4.5,90.4,4.5
		C78.1,4.5,66.8,8.8,57.8,16L60,38.3C62.6,35.4,65.4,32.5,68.4,29.6z"/>
	<path class="st0" d="M75.8,28.9l32.5,2.1c0.4-2.6,0.6-5.3,0.6-8c0-4.9-0.8-9.8-2.2-14.6C94.6,14.2,84.3,21.4,75.8,28.9z"/>
	<path class="st0" d="M79.5,61.4l-1-0.1l-1.3-0.1l-10.7-0.8l-0.1,0l-2.1-0.2l-0.2,0l-2-0.2l-0.3,0l-10.2-0.8l-1.7-0.1
		c-0.2,0.3-0.4,0.6-0.6,0.9c-0.8,1.3-1.6,2.5-2.3,3.7c-2.4,4.1-4,7.3-5,9.3c1.6,0.5,3.3,0.9,5,1.2c0.7,0.1,1.5,0.3,2.3,0.4
		c0.7,0.1,1.5,0.2,2.3,0.3c0.3,0,0.6,0.1,0.9,0.1c0.2,0,0.3,0,0.5,0c1.2,0.1,2.5,0.1,3.7,0.1c0.6,0,1.2,0,1.9,0
		c0.6,0,1.1-0.1,1.7-0.1c0.5,0,1.1-0.1,1.6-0.1c0.8-0.1,1.5-0.2,2.3-0.3c0.1,0,0.2,0,0.3,0c0.7-0.1,1.3-0.2,2-0.3
		c0.1,0,0.2,0,0.3-0.1c3.6-0.7,7.1-1.8,10.4-3.2c0,0,0,0,0.1,0c0.7-0.3,1.5-0.6,2.2-1c0.8-0.4,1.5-0.8,2.3-1.2
		c3.4-1.8,6.5-4.1,9.4-6.6l-9.4-0.7L79.5,61.4z"/>
	<path class="st0" d="M61,44c-0.5,0.6-1,1.3-1.5,1.9c-0.5,0.7-1.1,1.3-1.6,2c-1.9,2.4-3.6,4.8-5.2,7l8,0.6l1.3,0.1l1.1,0.1l1.2,0.1
		l1.2,0.1l1.1,0.1l10.7,0.8l1.8,0.1l0.4,0l2.3,0.2l13.7,1c5.7-6.3,10-14.1,12.1-22.6l-36.2-2.4C67.4,36.8,64,40.4,61,44z"/>
	<path d="M113.4,23c0-6.2-1.1-12.5-3.1-18.5c0,0,0-0.1,0-0.1c0,0,0-0.1,0-0.1c0-0.1-0.1-0.1-0.1-0.2c0-0.1-0.1-0.1-0.1-0.2
		c-0.1-0.1-0.1-0.2-0.2-0.3c0,0-0.1-0.1-0.1-0.1c-0.1-0.1-0.2-0.2-0.4-0.3c0,0,0,0,0,0c-0.1-0.1-0.3-0.2-0.4-0.2c0,0,0,0,0,0
		C102.9,1.1,96.6,0,90.4,0C76.6,0,64,4.9,54.2,13.1c-0.1,0.1-0.3,0.2-0.4,0.4c-3.6,3.1-6.9,6.6-9.6,10.5
		C34.7,16.9,23,12.7,10.3,12.7c-2.4,0-4.9,0.2-7.8,0.6c-1,0.1-1.8,0.9-1.9,1.9C0.2,18.2,0,20.7,0,23c0,22.4,13.1,41.9,32.1,51.1
		v34.3c0,8.7,4.6,16.6,11.7,21c1.5,0.9,3,1.7,4.7,2.3c-0.4,4-0.9,12.5-1.4,24c-0.2,4.3-0.3,9-0.5,14c0,1.2,0.9,2.3,2.2,2.3
		c0,0,0,0,0.1,0c1.2,0,2.2-1,2.2-2.2c1-32.7,2-38.6,2.1-39.1c0.1-0.5,0.1-1.1-0.1-1.6c-0.3-0.6-0.8-1-1.4-1.2
		c-3.3-0.9-6.2-2.6-8.5-4.8c-4-3.8-6.4-9.1-6.4-14.8V76c0.2,0.1,0.4,0.2,0.6,0.2c3.2,1.2,6.5,2,9.9,2.6v20.3c0,1.2,1,2.3,2.3,2.3
		c1.2,0,2.3-1,2.3-2.3V79.5c0.1,0,0.1,0,0.2,0c0.4,0,0.7,0.1,1.1,0.1c0.4,0,0.9,0.1,1.3,0.1c0.9,0,1.7,0.1,2.6,0.1
		c0.7,0,1.4,0,2.1-0.1c1.1,0,2.1-0.1,3.1-0.2v19.7c0,1.2,1,2.3,2.3,2.3c1.2,0,2.3-1,2.3-2.3V78.9c3.5-0.6,6.9-1.5,10.2-2.8
		c0.2-0.1,0.4-0.1,0.6-0.2l0,32.5c0,5.7-2.4,11-6.3,14.7c-2.4,2.3-5.3,4-8.6,4.9c-0.6,0.2-1.1,0.6-1.4,1.2c-0.2,0.5-0.3,1.1-0.1,1.6
		c0.1,0.5,1,6.9,2.1,39.8c0,1.2,1,2.2,2.2,2.2c0,0,0,0,0.1,0c1.2,0,2.2-1.1,2.2-2.3c-0.2-5.1-0.3-9.8-0.5-14.1
		c-0.5-11.8-1-20.5-1.4-24.6c1.7-0.6,3.3-1.4,4.7-2.3c7.1-4.5,11.6-12.3,11.6-21l0-34.5c15.6-7.7,27.1-22.3,30.6-39.9
		c0.1-0.2,0.1-0.3,0.1-0.5c0,0,0,0,0,0C113.1,30.1,113.4,26.6,113.4,23z M90.4,4.5c3.8,0,7.6,0.5,11.4,1.3
		c-13.1,6.6-23.8,14.7-32.6,23c-0.3,0.2-0.6,0.4-0.8,0.7c-3,2.9-5.8,5.8-8.4,8.7L57.8,16C66.8,8.8,78.1,4.5,90.4,4.5z M34,51
		c-0.2,1.9-0.3,3.8-0.3,5.7c0,2.7,0.2,5.5,0.6,8.2c0.3,1.9,0.7,3.9,1.2,5.8c-0.4-0.2-0.8-0.3-1.2-0.5c-0.8-0.4-1.5-0.7-2.3-1.1
		C15.7,60.2,4.5,42.9,4.5,23c0-1.7,0.1-3.5,0.3-5.5c2-0.2,3.8-0.3,5.5-0.3c11.8,0,22.6,3.9,31.4,10.5C37.5,34.7,34.8,42.6,34,51z
		 M38.2,56.7c0-9.5,2.6-18.4,7-26.1c0.4-0.7,0.8-1.3,1.2-2c0.4-0.6,0.8-1.3,1.2-1.9c1.8-2.5,3.8-4.9,6-7.1l1.5,15.1l0.4,4.4l0.4,3.9
		c-0.1,0.1-0.2,0.3-0.4,0.4c-2.1,2.6-4,5.1-5.7,7.6c-1,1.4-2,2.8-2.9,4.2c-3.4,5.1-5.9,9.6-7.5,12.8C38.6,64.3,38.2,60.5,38.2,56.7z
		 M81.7,68.9c-0.7,0.4-1.5,0.8-2.3,1.2c-0.7,0.3-1.4,0.7-2.2,1c0,0,0,0-0.1,0c-3.3,1.4-6.8,2.5-10.4,3.2c-0.1,0-0.2,0-0.3,0.1
		c-0.7,0.1-1.3,0.2-2,0.3c-0.1,0-0.2,0-0.3,0c-0.7,0.1-1.5,0.2-2.3,0.3c-0.5,0.1-1.1,0.1-1.6,0.1c-0.6,0-1.2,0.1-1.7,0.1
		c-0.6,0-1.2,0-1.9,0c-1.2,0-2.5-0.1-3.7-0.1c-0.2,0-0.3,0-0.5,0c-0.3,0-0.6-0.1-0.9-0.1c-0.8-0.1-1.5-0.2-2.3-0.3
		c-0.8-0.1-1.5-0.3-2.3-0.4c-1.7-0.3-3.3-0.7-5-1.2c0.9-2,2.6-5.3,5-9.3c0.7-1.2,1.4-2.4,2.3-3.7c0.2-0.3,0.4-0.6,0.6-0.9l1.7,0.1
		l10.2,0.8l0.3,0l2,0.2l0.2,0l2.1,0.2l0.1,0l10.7,0.8l1.3,0.1l1,0.1l2.3,0.2l9.4,0.7C88.2,64.8,85.1,67,81.7,68.9z M95.4,58.1
		l-13.7-1l-2.3-0.2l-0.4,0l-1.8-0.1l-10.7-0.8l-1.1-0.1l-1.2-0.1L63,55.7L62,55.6l-1.3-0.1l-8-0.6c1.6-2.2,3.3-4.6,5.2-7
		c0.5-0.7,1-1.3,1.6-2c0.5-0.6,1-1.3,1.5-1.9c3-3.6,6.4-7.3,10.2-10.9l36.2,2.4C105.3,44,101.1,51.8,95.4,58.1z M108.3,31l-32.5-2.1
		c8.5-7.5,18.8-14.7,31-20.5c1.4,4.8,2.2,9.7,2.2,14.6C108.9,25.7,108.7,28.4,108.3,31z"/>
</g>
</svg>
